<svg width="329" height="25" viewBox="0 0 329 25" fill="none" xmlns="http://www.w3.org/2000/svg">
<path d="M5.42847 6.92847H323.428C325.914 6.92847 327.928 8.94319 327.928 11.4285C327.928 13.9137 325.914 15.9285 323.428 15.9285H5.42847C2.94319 15.9285 0.928467 13.9137 0.928467 11.4285C0.928467 8.94319 2.94319 6.92847 5.42847 6.92847Z" fill="#0C0C0C"/>
<path d="M5.42847 6.92847H323.428C325.914 6.92847 327.928 8.94319 327.928 11.4285C327.928 13.9137 325.914 15.9285 323.428 15.9285H5.42847C2.94319 15.9285 0.928467 13.9137 0.928467 11.4285C0.928467 8.94319 2.94319 6.92847 5.42847 6.92847Z" stroke="#171A16"/>
<path d="M0.428467 11.4285C0.428467 8.66704 2.66704 6.42847 5.42847 6.42847H212.428V16.4285H5.42847C2.66704 16.4285 0.428467 14.1899 0.428467 11.4285Z" fill="url(#paint0_linear_1_1143)"/>
<line x1="211.428" y1="5.42847" x2="211.428" y2="17.4285" stroke="#FF9C54" stroke-width="2" stroke-linecap="round"/>
<rect x="304.428" y="0.428467" width="24" height="24" rx="4.28571" fill="black"/>
<rect x="304.428" y="0.428467" width="24" height="24" rx="4.5" fill="black"/>
<rect x="304.428" y="0.428467" width="24" height="24" rx="4.5" fill="url(#paint1_radial_1_1143)" fill-opacity="0.4"/>
<rect x="304.428" y="0.428467" width="24" height="24" rx="4.5" stroke="black" stroke-width="0.857143"/>
<rect x="304.428" y="0.428467" width="24" height="24" rx="4.5" stroke="url(#paint2_linear_1_1143)" stroke-opacity="0.8" stroke-width="0.857143"/>
<g clip-path="url(#clip0_1_1143)">
<g filter="url(#filter0_ii_1_1143)">
<path d="M323.581 5.40381C323.639 5.40381 323.689 5.43934 323.71 5.48975L323.721 5.54443V19.5522C323.721 19.6293 323.658 19.6919 323.581 19.6919H320.079C320.029 19.6919 319.983 19.665 319.958 19.6216C319.933 19.578 319.934 19.5243 319.959 19.481L321.311 17.1772L321.566 16.7407L321.079 16.604C319.917 16.2758 319.064 15.2049 319.063 13.9409V10.4331L318.582 10.5493C318.437 10.5842 318.285 10.6021 318.129 10.6021C317.521 10.602 316.976 10.3214 316.615 9.87842L316.312 9.50537L316.009 9.87842C315.648 10.3217 315.102 10.6021 314.494 10.6021C314.339 10.602 314.187 10.5841 314.042 10.5493L313.56 10.4331V13.9409C313.559 15.2049 312.706 16.2757 311.544 16.604L311.058 16.7407L311.313 17.1772L312.665 19.481C312.69 19.5243 312.691 19.578 312.666 19.6216C312.641 19.6652 312.594 19.6919 312.544 19.6919H309.042C308.965 19.6917 308.903 19.6292 308.902 19.5522V5.54346C308.903 5.46777 308.963 5.40605 309.038 5.40381C309.039 5.40387 309.041 5.40473 309.042 5.40479H309.073C309.079 5.40454 309.085 5.40403 309.088 5.40381H323.581ZM309.183 19.4116H312.3L311.955 18.8237L310.826 16.8999L310.713 16.7075H309.183V19.4116ZM321.797 16.8999L320.669 18.8237L320.323 19.4116H323.441V16.7075H321.91L321.797 16.8999ZM312.374 9.87842C312.013 10.3216 311.468 10.6021 310.859 10.6021C310.465 10.602 310.097 10.4838 309.789 10.2798L309.183 9.87842V16.4272H310.793C312.164 16.4272 313.28 15.3123 313.28 13.9409V10.439C313.28 10.4376 313.28 10.4312 313.282 10.4165L313.312 10.2134L313.163 10.0737C313.096 10.0112 313.035 9.946 312.98 9.87842L312.677 9.50537L312.374 9.87842ZM319.644 9.87842C319.588 9.94617 319.527 10.0112 319.46 10.0737L319.311 10.2134L319.341 10.4165C319.343 10.4306 319.344 10.4373 319.344 10.439V13.9409C319.344 15.3123 320.459 16.4272 321.83 16.4272H323.441V9.87842L322.835 10.2798C322.527 10.484 322.159 10.6021 321.764 10.6021C321.155 10.602 320.61 10.3216 320.249 9.87842L319.946 9.50537L319.644 9.87842ZM309.208 6.0708L309.183 8.62842V8.63232C309.184 9.56023 309.931 10.3227 310.859 10.3228C311.789 10.3228 312.537 9.55878 312.537 8.62939C312.537 8.55233 312.6 8.48983 312.677 8.48975C312.754 8.48975 312.816 8.5523 312.816 8.62939C312.816 9.55869 313.565 10.3227 314.494 10.3228C315.424 10.3228 316.172 9.55875 316.172 8.62939C316.172 8.5523 316.234 8.4898 316.312 8.48975C316.389 8.48975 316.451 8.5523 316.451 8.62939C316.451 9.55871 317.199 10.3227 318.129 10.3228C319.059 10.3228 319.807 9.55871 319.807 8.62939C319.807 8.55225 319.869 8.48976 319.946 8.48975C320.023 8.48975 320.086 8.55227 320.086 8.62939C320.086 9.55874 320.834 10.3227 321.764 10.3228C322.693 10.3228 323.441 9.55873 323.441 8.62939V5.68408H309.212L309.208 6.0708Z" stroke="#FF5EAE" stroke-width="0.781395"/>
<path d="M323.581 5.40381C323.639 5.40381 323.689 5.43934 323.71 5.48975L323.721 5.54443V19.5522C323.721 19.6293 323.658 19.6919 323.581 19.6919H320.079C320.029 19.6919 319.983 19.665 319.958 19.6216C319.933 19.578 319.934 19.5243 319.959 19.481L321.311 17.1772L321.566 16.7407L321.079 16.604C319.917 16.2758 319.064 15.2049 319.063 13.9409V10.4331L318.582 10.5493C318.437 10.5842 318.285 10.6021 318.129 10.6021C317.521 10.602 316.976 10.3214 316.615 9.87842L316.312 9.50537L316.009 9.87842C315.648 10.3217 315.102 10.6021 314.494 10.6021C314.339 10.602 314.187 10.5841 314.042 10.5493L313.56 10.4331V13.9409C313.559 15.2049 312.706 16.2757 311.544 16.604L311.058 16.7407L311.313 17.1772L312.665 19.481C312.69 19.5243 312.691 19.578 312.666 19.6216C312.641 19.6652 312.594 19.6919 312.544 19.6919H309.042C308.965 19.6917 308.903 19.6292 308.902 19.5522V5.54346C308.903 5.46777 308.963 5.40605 309.038 5.40381C309.039 5.40387 309.041 5.40473 309.042 5.40479H309.073C309.079 5.40454 309.085 5.40403 309.088 5.40381H323.581ZM309.183 19.4116H312.3L311.955 18.8237L310.826 16.8999L310.713 16.7075H309.183V19.4116ZM321.797 16.8999L320.669 18.8237L320.323 19.4116H323.441V16.7075H321.91L321.797 16.8999ZM312.374 9.87842C312.013 10.3216 311.468 10.6021 310.859 10.6021C310.465 10.602 310.097 10.4838 309.789 10.2798L309.183 9.87842V16.4272H310.793C312.164 16.4272 313.28 15.3123 313.28 13.9409V10.439C313.28 10.4376 313.28 10.4312 313.282 10.4165L313.312 10.2134L313.163 10.0737C313.096 10.0112 313.035 9.946 312.98 9.87842L312.677 9.50537L312.374 9.87842ZM319.644 9.87842C319.588 9.94617 319.527 10.0112 319.46 10.0737L319.311 10.2134L319.341 10.4165C319.343 10.4306 319.344 10.4373 319.344 10.439V13.9409C319.344 15.3123 320.459 16.4272 321.83 16.4272H323.441V9.87842L322.835 10.2798C322.527 10.484 322.159 10.6021 321.764 10.6021C321.155 10.602 320.61 10.3216 320.249 9.87842L319.946 9.50537L319.644 9.87842ZM309.208 6.0708L309.183 8.62842V8.63232C309.184 9.56023 309.931 10.3227 310.859 10.3228C311.789 10.3228 312.537 9.55878 312.537 8.62939C312.537 8.55233 312.6 8.48983 312.677 8.48975C312.754 8.48975 312.816 8.5523 312.816 8.62939C312.816 9.55869 313.565 10.3227 314.494 10.3228C315.424 10.3228 316.172 9.55875 316.172 8.62939C316.172 8.5523 316.234 8.4898 316.312 8.48975C316.389 8.48975 316.451 8.5523 316.451 8.62939C316.451 9.55871 317.199 10.3227 318.129 10.3228C319.059 10.3228 319.807 9.55871 319.807 8.62939C319.807 8.55225 319.869 8.48976 319.946 8.48975C320.023 8.48975 320.086 8.55227 320.086 8.62939C320.086 9.55874 320.834 10.3227 321.764 10.3228C322.693 10.3228 323.441 9.55873 323.441 8.62939V5.68408H309.212L309.208 6.0708Z" stroke="url(#paint3_radial_1_1143)" stroke-opacity="0.4" stroke-width="0.781395"/>
</g>
</g>
<rect x="0.428467" y="0.428467" width="24" height="24" rx="4.28571" fill="black"/>
<rect x="0.428467" y="0.428467" width="24" height="24" rx="4.5" fill="black"/>
<rect x="0.428467" y="0.428467" width="24" height="24" rx="4.5" fill="url(#paint4_radial_1_1143)" fill-opacity="0.4"/>
<rect x="0.428467" y="0.428467" width="24" height="24" rx="4.5" stroke="black" stroke-width="0.857143"/>
<rect x="0.428467" y="0.428467" width="24" height="24" rx="4.5" stroke="url(#paint5_linear_1_1143)" stroke-opacity="0.8" stroke-width="0.857143"/>
<g filter="url(#filter1_i_1_1143)">
<path d="M14.3813 20.0471V20.4377H10.4741V20.0471H14.3813ZM7.88721 19.8655C8.02474 19.9229 8.19001 19.9639 8.39502 19.9915C8.72891 20.0363 9.14761 20.0426 9.69287 20.0442V20.4348C9.14621 20.4333 8.7028 20.4274 8.34326 20.3792C8.05389 20.3402 7.80709 20.2725 7.59521 20.1575L7.88721 19.8655ZM17.2603 20.1575C17.0485 20.2724 16.8024 20.3403 16.5132 20.3792C16.1535 20.4275 15.7096 20.4333 15.1626 20.4348V20.0442C15.7079 20.0426 16.1266 20.0363 16.4604 19.9915C16.6654 19.9639 16.8308 19.9229 16.9683 19.8655L17.2603 20.1575ZM7.15674 17.5081C7.15837 18.0532 7.16361 18.4721 7.2085 18.8059C7.23604 19.0107 7.27613 19.1763 7.3335 19.3137L7.0415 19.6057C6.92659 19.3939 6.86066 19.1469 6.82178 18.8577C6.77345 18.4982 6.76768 18.0548 6.76611 17.5081H7.15674ZM18.0903 17.5081C18.0888 18.0548 18.082 18.4982 18.0337 18.8577C17.9948 19.1471 17.9281 19.3938 17.813 19.6057L17.521 19.3137C17.5784 19.1762 17.6194 19.0109 17.647 18.8059C17.6918 18.4721 17.6981 18.0532 17.6997 17.5081H18.0903ZM17.7739 15.1409L17.9312 15.4993L18.0933 15.428V16.7258H17.7026V14.9768L17.7739 15.1409ZM7.15381 16.7258H6.76318V15.428L6.92529 15.4993L7.08154 15.1409L7.15381 14.9749V16.7258ZM4.83154 11.2561C4.95626 12.4488 5.6447 13.4725 6.62744 14.0569H5.98096V14.0842C5.12621 13.4088 4.54718 12.402 4.43896 11.2561H4.83154ZM20.4165 11.2561C20.3083 12.402 19.7293 13.4088 18.8745 14.0842V14.0569H18.228C19.2108 13.4725 19.8992 12.4488 20.0239 11.2561H20.4165ZM16.7251 6.78149C18.679 6.96589 20.2327 8.52107 20.4175 10.4749H20.0249C19.8462 8.76778 18.5114 7.40561 16.8169 7.18579C16.8081 7.14475 16.8014 7.10338 16.7915 7.06274L16.8091 7.05688L16.7251 6.80786V6.78149ZM8.13037 6.81079L8.04639 7.05688L8.06299 7.06274C8.05307 7.10337 8.0464 7.14476 8.0376 7.18579C6.34362 7.40607 5.00926 8.76816 4.83057 10.4749H4.43799C4.62273 8.52113 6.17657 6.96597 8.13037 6.78149V6.81079ZM12.0376 4.83423C10.99 4.95692 10.0923 5.56657 9.57568 6.43188L9.62646 6.09204L9.35596 6.05103C9.95459 5.16857 10.9217 4.55831 12.0376 4.44165V4.83423ZM12.8188 4.44165C13.9342 4.55849 14.9 5.16907 15.4985 6.05103L15.229 6.09204L15.2788 6.43188C14.7623 5.56706 13.8659 4.95711 12.8188 4.83423V4.44165Z" stroke="#FF9C54" stroke-width="0.781395"/>
<path d="M14.3813 20.0471V20.4377H10.4741V20.0471H14.3813ZM7.88721 19.8655C8.02474 19.9229 8.19001 19.9639 8.39502 19.9915C8.72891 20.0363 9.14761 20.0426 9.69287 20.0442V20.4348C9.14621 20.4333 8.7028 20.4274 8.34326 20.3792C8.05389 20.3402 7.80709 20.2725 7.59521 20.1575L7.88721 19.8655ZM17.2603 20.1575C17.0485 20.2724 16.8024 20.3403 16.5132 20.3792C16.1535 20.4275 15.7096 20.4333 15.1626 20.4348V20.0442C15.7079 20.0426 16.1266 20.0363 16.4604 19.9915C16.6654 19.9639 16.8308 19.9229 16.9683 19.8655L17.2603 20.1575ZM7.15674 17.5081C7.15837 18.0532 7.16361 18.4721 7.2085 18.8059C7.23604 19.0107 7.27613 19.1763 7.3335 19.3137L7.0415 19.6057C6.92659 19.3939 6.86066 19.1469 6.82178 18.8577C6.77345 18.4982 6.76768 18.0548 6.76611 17.5081H7.15674ZM18.0903 17.5081C18.0888 18.0548 18.082 18.4982 18.0337 18.8577C17.9948 19.1471 17.9281 19.3938 17.813 19.6057L17.521 19.3137C17.5784 19.1762 17.6194 19.0109 17.647 18.8059C17.6918 18.4721 17.6981 18.0532 17.6997 17.5081H18.0903ZM17.7739 15.1409L17.9312 15.4993L18.0933 15.428V16.7258H17.7026V14.9768L17.7739 15.1409ZM7.15381 16.7258H6.76318V15.428L6.92529 15.4993L7.08154 15.1409L7.15381 14.9749V16.7258ZM4.83154 11.2561C4.95626 12.4488 5.6447 13.4725 6.62744 14.0569H5.98096V14.0842C5.12621 13.4088 4.54718 12.402 4.43896 11.2561H4.83154ZM20.4165 11.2561C20.3083 12.402 19.7293 13.4088 18.8745 14.0842V14.0569H18.228C19.2108 13.4725 19.8992 12.4488 20.0239 11.2561H20.4165ZM16.7251 6.78149C18.679 6.96589 20.2327 8.52107 20.4175 10.4749H20.0249C19.8462 8.76778 18.5114 7.40561 16.8169 7.18579C16.8081 7.14475 16.8014 7.10338 16.7915 7.06274L16.8091 7.05688L16.7251 6.80786V6.78149ZM8.13037 6.81079L8.04639 7.05688L8.06299 7.06274C8.05307 7.10337 8.0464 7.14476 8.0376 7.18579C6.34362 7.40607 5.00926 8.76816 4.83057 10.4749H4.43799C4.62273 8.52113 6.17657 6.96597 8.13037 6.78149V6.81079ZM12.0376 4.83423C10.99 4.95692 10.0923 5.56657 9.57568 6.43188L9.62646 6.09204L9.35596 6.05103C9.95459 5.16857 10.9217 4.55831 12.0376 4.44165V4.83423ZM12.8188 4.44165C13.9342 4.55849 14.9 5.16907 15.4985 6.05103L15.229 6.09204L15.2788 6.43188C14.7623 5.56706 13.8659 4.95711 12.8188 4.83423V4.44165Z" stroke="url(#paint6_radial_1_1143)" stroke-opacity="0.4" stroke-width="0.781395"/>
</g>
<g filter="url(#filter2_i_1_1143)">
<path d="M10.0864 17.1169H14.7748" stroke="#FF9C54" stroke-width="1.44" stroke-linecap="round" stroke-linejoin="round"/>
<path d="M10.0864 17.1169H14.7748" stroke="url(#paint7_radial_1_1143)" stroke-opacity="0.4" stroke-width="1.44" stroke-linecap="round" stroke-linejoin="round"/>
</g>
<defs>
<filter id="filter0_ii_1_1143" x="308.512" y="5.01318" width="15.6001" height="15.3093" filterUnits="userSpaceOnUse" color-interpolation-filters="sRGB">
<feFlood flood-opacity="0" result="BackgroundImageFix"/>
<feBlend mode="normal" in="SourceGraphic" in2="BackgroundImageFix" result="shape"/>
<feColorMatrix in="SourceAlpha" type="matrix" values="0 0 0 0 0 0 0 0 0 0 0 0 0 0 0 0 0 0 127 0" result="hardAlpha"/>
<feOffset dy="0.24"/>
<feGaussianBlur stdDeviation="0.24"/>
<feComposite in2="hardAlpha" operator="arithmetic" k2="-1" k3="1"/>
<feColorMatrix type="matrix" values="0 0 0 0 1 0 0 0 0 1 0 0 0 0 1 0 0 0 0.1 0"/>
<feBlend mode="normal" in2="shape" result="effect1_innerShadow_1_1143"/>
<feColorMatrix in="SourceAlpha" type="matrix" values="0 0 0 0 0 0 0 0 0 0 0 0 0 0 0 0 0 0 127 0" result="hardAlpha"/>
<feOffset dy="0.24"/>
<feGaussianBlur stdDeviation="0.24"/>
<feComposite in2="hardAlpha" operator="arithmetic" k2="-1" k3="1"/>
<feColorMatrix type="matrix" values="0 0 0 0 1 0 0 0 0 1 0 0 0 0 1 0 0 0 0.1 0"/>
<feBlend mode="normal" in2="effect1_innerShadow_1_1143" result="effect2_innerShadow_1_1143"/>
</filter>
<filter id="filter1_i_1_1143" x="4.02783" y="4.02856" width="16.8" height="17.04" filterUnits="userSpaceOnUse" color-interpolation-filters="sRGB">
<feFlood flood-opacity="0" result="BackgroundImageFix"/>
<feBlend mode="normal" in="SourceGraphic" in2="BackgroundImageFix" result="shape"/>
<feColorMatrix in="SourceAlpha" type="matrix" values="0 0 0 0 0 0 0 0 0 0 0 0 0 0 0 0 0 0 127 0" result="hardAlpha"/>
<feOffset dy="0.24"/>
<feGaussianBlur stdDeviation="0.24"/>
<feComposite in2="hardAlpha" operator="arithmetic" k2="-1" k3="1"/>
<feColorMatrix type="matrix" values="0 0 0 0 1 0 0 0 0 1 0 0 0 0 1 0 0 0 0.1 0"/>
<feBlend mode="normal" in2="shape" result="effect1_innerShadow_1_1143"/>
</filter>
<filter id="filter2_i_1_1143" x="9.36646" y="16.397" width="6.12842" height="1.67994" filterUnits="userSpaceOnUse" color-interpolation-filters="sRGB">
<feFlood flood-opacity="0" result="BackgroundImageFix"/>
<feBlend mode="normal" in="SourceGraphic" in2="BackgroundImageFix" result="shape"/>
<feColorMatrix in="SourceAlpha" type="matrix" values="0 0 0 0 0 0 0 0 0 0 0 0 0 0 0 0 0 0 127 0" result="hardAlpha"/>
<feOffset dy="0.24"/>
<feGaussianBlur stdDeviation="0.24"/>
<feComposite in2="hardAlpha" operator="arithmetic" k2="-1" k3="1"/>
<feColorMatrix type="matrix" values="0 0 0 0 1 0 0 0 0 1 0 0 0 0 1 0 0 0 0.1 0"/>
<feBlend mode="normal" in2="shape" result="effect1_innerShadow_1_1143"/>
</filter>
<linearGradient id="paint0_linear_1_1143" x1="0.428467" y1="11.4285" x2="212.428" y2="11.4285" gradientUnits="userSpaceOnUse">
<stop stop-color="#FF9C54" stop-opacity="0.5"/>
<stop offset="1" stop-color="#FF9C54"/>
</linearGradient>
<radialGradient id="paint1_radial_1_1143" cx="0" cy="0" r="1" gradientTransform="matrix(31.4683 40.0696 -15.6109 25.3914 293.444 -20.4933)" gradientUnits="userSpaceOnUse">
<stop stop-color="#FF5EAE"/>
<stop offset="1" stop-color="#0D0F0C"/>
</radialGradient>
<linearGradient id="paint2_linear_1_1143" x1="305.178" y1="1.55347" x2="326.388" y2="23.5885" gradientUnits="userSpaceOnUse">
<stop stop-color="#FF5EAE" stop-opacity="0.8"/>
<stop offset="0.288159" stop-color="#FF5EAE" stop-opacity="0.32"/>
<stop offset="0.637273" stop-color="#FF5EAE" stop-opacity="0.8"/>
<stop offset="1" stop-color="#FF5EAE" stop-opacity="0.32"/>
</linearGradient>
<radialGradient id="paint3_radial_1_1143" cx="0" cy="0" r="1" gradientTransform="matrix(12.4427 13.379 -5.27191 9.54562 309.383 3.65694)" gradientUnits="userSpaceOnUse">
<stop stop-color="white"/>
<stop offset="1" stop-color="#0D0F0C"/>
</radialGradient>
<radialGradient id="paint4_radial_1_1143" cx="0" cy="0" r="1" gradientTransform="matrix(39.84 40.44 -14.1172 30.0607 -16.7315 -16.9715)" gradientUnits="userSpaceOnUse">
<stop stop-color="#FF9C54"/>
<stop offset="1" stop-color="#0D0F0C"/>
</radialGradient>
<linearGradient id="paint5_linear_1_1143" x1="1.17847" y1="1.55347" x2="22.3885" y2="23.5885" gradientUnits="userSpaceOnUse">
<stop stop-color="#FF9C54" stop-opacity="0.8"/>
<stop offset="0.288159" stop-color="#FF9C54" stop-opacity="0.32"/>
<stop offset="0.637273" stop-color="#FF9C54" stop-opacity="0.8"/>
<stop offset="1" stop-color="#FF9C54" stop-opacity="0.32"/>
</linearGradient>
<radialGradient id="paint6_radial_1_1143" cx="0" cy="0" r="1" gradientTransform="matrix(13.3997 14.9155 -5.67738 10.6419 4.96654 2.51656)" gradientUnits="userSpaceOnUse">
<stop stop-color="white"/>
<stop offset="1" stop-color="#0D0F0C"/>
</radialGradient>
<radialGradient id="paint7_radial_1_1143" cx="0" cy="0" r="1" gradientTransform="matrix(3.73944 0.887826 -0.150028 10.9705 10.3484 17.0269)" gradientUnits="userSpaceOnUse">
<stop stop-color="white"/>
<stop offset="1" stop-color="#0D0F0C"/>
</radialGradient>
<clipPath id="clip0_1_1143">
<rect width="15.36" height="15.36" fill="white" transform="translate(308.512 4.98853)"/>
</clipPath>
</defs>
</svg>
