<svg width="16" height="16" viewBox="0 0 16 16" fill="none" xmlns="http://www.w3.org/2000/svg">
<path d="M9.33333 9.33387V4.00053M9.33333 9.33387L13.4013 11.6585C13.4621 11.6933 13.531 11.7115 13.601 11.7114C13.6711 11.7112 13.7398 11.6926 13.8004 11.6575C13.8611 11.6224 13.9114 11.572 13.9464 11.5114C13.9814 11.4507 13.9999 11.3819 14 11.3119V2.02253C14 1.95243 13.9816 1.88356 13.9467 1.82281C13.9117 1.76206 13.8614 1.71157 13.8007 1.67639C13.7401 1.64121 13.6713 1.62259 13.6012 1.62238C13.5311 1.62217 13.4622 1.64038 13.4013 1.6752L9.33333 4.00053M9.33333 9.33387H4.66667M9.33333 4.00053H4.66667C3.95942 4.00053 3.28115 4.28148 2.78105 4.78158C2.28095 5.28168 2 5.95996 2 6.6672C2 7.37444 2.28095 8.05272 2.78105 8.55282C3.28115 9.05291 3.95942 9.33387 4.66667 9.33387M4.66667 9.33387L5.17133 12.8672C5.22399 13.211 5.41019 13.5201 5.68946 13.7273C5.96873 13.9346 6.31851 14.0232 6.66279 13.9741C7.00707 13.9249 7.31803 13.7418 7.5281 13.4647C7.73817 13.1875 7.83037 12.8386 7.78467 12.4939L7.33333 9.33387H4.66667Z" stroke="#787878" stroke-width="1.2"/>
</svg>
