<svg width="16" height="16" viewBox="0 0 16 16" fill="none" xmlns="http://www.w3.org/2000/svg">
<path d="M6 6V4.13333C6 3.38667 6 3.01333 6.14533 2.728C6.27333 2.47667 6.47667 2.27333 6.728 2.14533C7.01333 2 7.38667 2 8.13333 2H11.8667C12.6133 2 12.9867 2 13.272 2.14533C13.5229 2.27316 13.7268 2.47713 13.8547 2.728C14 3.01333 14 3.38667 14 4.13333V7.86667C14 8.61333 14 8.98667 13.8547 9.272C13.7268 9.52287 13.5229 9.72684 13.272 9.85467C12.9867 10 12.6133 10 11.8687 10H10M6 6H4.13333C3.38667 6 3.01333 6 2.728 6.14533C2.47713 6.27316 2.27316 6.47713 2.14533 6.728C2 7.01333 2 7.38667 2 8.13333V11.8667C2 12.6133 2 12.9867 2.14533 13.272C2.27316 13.5229 2.47713 13.7268 2.728 13.8547C3.01267 14 3.386 14 4.13133 14H7.86933C8.614 14 8.98667 14 9.272 13.8547C9.52287 13.7268 9.72684 13.5229 9.85467 13.272C10 12.9867 10 12.614 10 11.8687V10M6 6H7.86667C8.61333 6 8.98667 6 9.272 6.14533C9.52287 6.27316 9.72684 6.47713 9.85467 6.728C10 7.01267 10 7.386 10 8.13133V10" stroke="white" stroke-width="1.33" stroke-linecap="round" stroke-linejoin="round"/>
</svg>
