<svg width="16" height="16" viewBox="0 0 16 16" fill="none" xmlns="http://www.w3.org/2000/svg">
<path d="M7.99906 10.83C7.89348 10.83 7.79449 10.8136 7.70211 10.7809C7.60972 10.7482 7.52394 10.692 7.44475 10.6123L4.594 7.7615C4.43562 7.60313 4.3596 7.41835 4.36594 7.20719C4.37227 6.99602 4.44829 6.81125 4.594 6.65288C4.75237 6.4945 4.94058 6.41215 5.15861 6.40581C5.37664 6.39948 5.56457 6.47523 5.72242 6.63308L7.20719 8.11784V2.45594C7.20719 2.23158 7.28321 2.04364 7.43525 1.89213C7.58729 1.74061 7.77522 1.66459 7.99906 1.66407C8.2229 1.66354 8.4111 1.73956 8.56367 1.89213C8.71623 2.04469 8.79199 2.23263 8.79094 2.45594V8.11784L10.2757 6.63308C10.4341 6.4747 10.6223 6.39868 10.8403 6.40502C11.0583 6.41135 11.2463 6.49397 11.4041 6.65288C11.5493 6.81125 11.6253 6.99602 11.6322 7.20719C11.639 7.41835 11.563 7.60313 11.4041 7.7615L8.55337 10.6123C8.47418 10.6914 8.3884 10.7477 8.29601 10.7809C8.20363 10.8142 8.10464 10.8305 7.99906 10.83ZM3.24781 14.3341C2.81228 14.3341 2.43957 14.1791 2.12968 13.8692C1.8198 13.5593 1.66459 13.1864 1.66406 12.7503V11.1666C1.66406 10.9422 1.74008 10.7543 1.89212 10.6027C2.04416 10.4512 2.2321 10.3752 2.45594 10.3747C2.67977 10.3742 2.86798 10.4502 3.02054 10.6027C3.17311 10.7553 3.24887 10.9433 3.24781 11.1666V12.7503H12.7503V11.1666C12.7503 10.9422 12.8263 10.7543 12.9784 10.6027C13.1304 10.4512 13.3183 10.3752 13.5422 10.3747C13.766 10.3742 13.9542 10.4502 14.1068 10.6027C14.2594 10.7553 14.3351 10.9433 14.3341 11.1666V12.7503C14.3341 13.1858 14.1791 13.5588 13.8692 13.8692C13.5593 14.1796 13.1864 14.3346 12.7503 14.3341H3.24781Z" fill="#FCFCFC"/>
</svg>
