<svg width="16" height="16" viewBox="0 0 16 16" fill="none" xmlns="http://www.w3.org/2000/svg">
<path d="M9.04297 9.04297L5.9541 10.0449L6.95703 6.95703L10.0449 5.9541L9.04297 9.04297ZM8.00293 6.92285C7.71017 6.92285 7.44906 7.02746 7.24023 7.23242L7.23926 7.2334C7.03001 7.44072 6.92291 7.70244 6.92285 7.99707C6.92285 8.28984 7.02746 8.55094 7.23242 8.75977H7.2334C7.44064 8.96957 7.70211 9.07708 7.99707 9.07715C8.25375 9.07715 8.48584 8.99691 8.67969 8.83887L8.75977 8.7666C8.96957 8.55936 9.07708 8.29789 9.07715 8.00293C9.07715 7.70981 8.97217 7.44899 8.7666 7.24023V7.23926L8.68555 7.16602C8.49264 7.00544 8.2607 6.92291 8.00293 6.92285Z" fill="#FCFCFC" stroke="#FCFCFC" stroke-width="0.666667"/>
<path d="M5.662 13.528C6.39222 13.8427 7.17222 14 8.002 14C8.83267 14.0004 9.61244 13.8429 10.3413 13.5273C11.0702 13.2118 11.7049 12.784 12.2453 12.244C12.7858 11.704 13.2133 11.0687 13.528 10.338C13.8427 9.60733 14 8.82733 14 7.998C14 7.16867 13.8424 6.38889 13.5273 5.65867C13.2122 4.92844 12.7844 4.29356 12.244 3.754C11.7036 3.21444 11.0682 2.78733 10.338 2.47267C9.60733 2.15756 8.82733 2 7.998 2C7.16867 2 6.38867 2.15756 5.658 2.47267C4.92733 2.78778 4.29244 3.21556 3.75333 3.756C3.21422 4.29644 2.78733 4.93178 2.47267 5.662C2.15756 6.39178 2 7.17178 2 8.002C2 8.83222 2.15756 9.612 2.47267 10.3413C2.78778 11.0707 3.21556 11.7053 3.756 12.2453C4.29644 12.7853 4.93178 13.2129 5.662 13.528Z" stroke="#FCFCFC" stroke-width="1.2"/>
</svg>
