<svg width="329" height="26" viewBox="0 0 329 26" fill="none" xmlns="http://www.w3.org/2000/svg">
<path d="M5.42847 7.92847H323.428C325.914 7.92847 327.928 9.94319 327.928 12.4285C327.928 14.9137 325.914 16.9285 323.428 16.9285H5.42847C2.94319 16.9285 0.928467 14.9137 0.928467 12.4285C0.928467 9.94319 2.94319 7.92847 5.42847 7.92847Z" fill="#0C0C0C"/>
<path d="M5.42847 7.92847H323.428C325.914 7.92847 327.928 9.94319 327.928 12.4285C327.928 14.9137 325.914 16.9285 323.428 16.9285H5.42847C2.94319 16.9285 0.928467 14.9137 0.928467 12.4285C0.928467 9.94319 2.94319 7.92847 5.42847 7.92847Z" stroke="#171A16"/>
<path d="M0.428467 12.4285C0.428467 9.66704 2.66704 7.42847 5.42847 7.42847H212.428V17.4285H5.42847C2.66704 17.4285 0.428467 15.1899 0.428467 12.4285Z" fill="url(#paint0_linear_1_1099)"/>
<line x1="211.428" y1="6.42847" x2="211.428" y2="18.4285" stroke="#FFD738" stroke-width="2" stroke-linecap="round"/>
<rect x="304.428" y="1.42847" width="24" height="24" rx="4.28571" fill="black"/>
<rect x="304.428" y="1.42847" width="24" height="24" rx="4.5" fill="black"/>
<rect x="304.428" y="1.42847" width="24" height="24" rx="4.5" fill="url(#paint1_radial_1_1099)" fill-opacity="0.4"/>
<rect x="304.428" y="1.42847" width="24" height="24" rx="4.5" stroke="black" stroke-width="0.857143"/>
<rect x="304.428" y="1.42847" width="24" height="24" rx="4.5" stroke="url(#paint2_linear_1_1099)" stroke-opacity="0.8" stroke-width="0.857143"/>
<g filter="url(#filter0_i_1_1099)">
<path d="M318.381 21.0471V21.4377H314.474V21.0471H318.381ZM311.887 20.8655C312.025 20.9229 312.19 20.9639 312.395 20.9915C312.729 21.0363 313.148 21.0426 313.693 21.0442V21.4348C313.146 21.4333 312.703 21.4274 312.343 21.3792C312.054 21.3402 311.807 21.2725 311.595 21.1575L311.887 20.8655ZM321.26 21.1575C321.048 21.2724 320.802 21.3403 320.513 21.3792C320.154 21.4275 319.71 21.4333 319.163 21.4348V21.0442C319.708 21.0426 320.127 21.0363 320.46 20.9915C320.665 20.9639 320.831 20.9229 320.968 20.8655L321.26 21.1575ZM311.157 18.5081C311.158 19.0532 311.164 19.4721 311.208 19.8059C311.236 20.0107 311.276 20.1763 311.333 20.3137L311.042 20.6057C310.927 20.3939 310.861 20.1469 310.822 19.8577C310.773 19.4982 310.768 19.0548 310.766 18.5081H311.157ZM322.09 18.5081C322.089 19.0548 322.082 19.4982 322.034 19.8577C321.995 20.1471 321.928 20.3938 321.813 20.6057L321.521 20.3137C321.578 20.1762 321.619 20.0109 321.647 19.8059C321.692 19.4721 321.698 19.0532 321.7 18.5081H322.09ZM321.774 16.1409L321.931 16.4993L322.093 16.428V17.7258H321.703V15.9768L321.774 16.1409ZM311.154 17.7258H310.763V16.428L310.925 16.4993L311.082 16.1409L311.154 15.9749V17.7258ZM308.832 12.2561C308.956 13.4488 309.645 14.4725 310.627 15.0569H309.981V15.0842C309.126 14.4088 308.547 13.402 308.439 12.2561H308.832ZM324.417 12.2561C324.308 13.402 323.729 14.4088 322.875 15.0842V15.0569H322.228C323.211 14.4725 323.899 13.4488 324.024 12.2561H324.417ZM320.725 7.78149C322.679 7.96589 324.233 9.52107 324.417 11.4749H324.025C323.846 9.76778 322.511 8.40561 320.817 8.18579C320.808 8.14475 320.801 8.10338 320.792 8.06274L320.809 8.05688L320.725 7.80786V7.78149ZM312.13 7.81079L312.046 8.05688L312.063 8.06274C312.053 8.10337 312.046 8.14476 312.038 8.18579C310.344 8.40607 309.009 9.76816 308.831 11.4749H308.438C308.623 9.52113 310.177 7.96597 312.13 7.78149V7.81079ZM316.038 5.83423C314.99 5.95692 314.092 6.56657 313.576 7.43188L313.626 7.09204L313.356 7.05103C313.955 6.16857 314.922 5.55831 316.038 5.44165V5.83423ZM316.819 5.44165C317.934 5.55849 318.9 6.16907 319.499 7.05103L319.229 7.09204L319.279 7.43188C318.762 6.56706 317.866 5.95711 316.819 5.83423V5.44165Z" stroke="#FF9C54" stroke-width="0.781395"/>
<path d="M318.381 21.0471V21.4377H314.474V21.0471H318.381ZM311.887 20.8655C312.025 20.9229 312.19 20.9639 312.395 20.9915C312.729 21.0363 313.148 21.0426 313.693 21.0442V21.4348C313.146 21.4333 312.703 21.4274 312.343 21.3792C312.054 21.3402 311.807 21.2725 311.595 21.1575L311.887 20.8655ZM321.26 21.1575C321.048 21.2724 320.802 21.3403 320.513 21.3792C320.154 21.4275 319.71 21.4333 319.163 21.4348V21.0442C319.708 21.0426 320.127 21.0363 320.46 20.9915C320.665 20.9639 320.831 20.9229 320.968 20.8655L321.26 21.1575ZM311.157 18.5081C311.158 19.0532 311.164 19.4721 311.208 19.8059C311.236 20.0107 311.276 20.1763 311.333 20.3137L311.042 20.6057C310.927 20.3939 310.861 20.1469 310.822 19.8577C310.773 19.4982 310.768 19.0548 310.766 18.5081H311.157ZM322.09 18.5081C322.089 19.0548 322.082 19.4982 322.034 19.8577C321.995 20.1471 321.928 20.3938 321.813 20.6057L321.521 20.3137C321.578 20.1762 321.619 20.0109 321.647 19.8059C321.692 19.4721 321.698 19.0532 321.7 18.5081H322.09ZM321.774 16.1409L321.931 16.4993L322.093 16.428V17.7258H321.703V15.9768L321.774 16.1409ZM311.154 17.7258H310.763V16.428L310.925 16.4993L311.082 16.1409L311.154 15.9749V17.7258ZM308.832 12.2561C308.956 13.4488 309.645 14.4725 310.627 15.0569H309.981V15.0842C309.126 14.4088 308.547 13.402 308.439 12.2561H308.832ZM324.417 12.2561C324.308 13.402 323.729 14.4088 322.875 15.0842V15.0569H322.228C323.211 14.4725 323.899 13.4488 324.024 12.2561H324.417ZM320.725 7.78149C322.679 7.96589 324.233 9.52107 324.417 11.4749H324.025C323.846 9.76778 322.511 8.40561 320.817 8.18579C320.808 8.14475 320.801 8.10338 320.792 8.06274L320.809 8.05688L320.725 7.80786V7.78149ZM312.13 7.81079L312.046 8.05688L312.063 8.06274C312.053 8.10337 312.046 8.14476 312.038 8.18579C310.344 8.40607 309.009 9.76816 308.831 11.4749H308.438C308.623 9.52113 310.177 7.96597 312.13 7.78149V7.81079ZM316.038 5.83423C314.99 5.95692 314.092 6.56657 313.576 7.43188L313.626 7.09204L313.356 7.05103C313.955 6.16857 314.922 5.55831 316.038 5.44165V5.83423ZM316.819 5.44165C317.934 5.55849 318.9 6.16907 319.499 7.05103L319.229 7.09204L319.279 7.43188C318.762 6.56706 317.866 5.95711 316.819 5.83423V5.44165Z" stroke="url(#paint3_radial_1_1099)" stroke-opacity="0.4" stroke-width="0.781395"/>
</g>
<g filter="url(#filter1_i_1_1099)">
<path d="M314.086 18.1169H318.775" stroke="#FF9C54" stroke-width="1.44" stroke-linecap="round" stroke-linejoin="round"/>
<path d="M314.086 18.1169H318.775" stroke="url(#paint4_radial_1_1099)" stroke-opacity="0.4" stroke-width="1.44" stroke-linecap="round" stroke-linejoin="round"/>
</g>
<rect x="0.428467" y="0.428467" width="24" height="24" rx="4.28571" fill="black"/>
<rect x="0.428467" y="0.428467" width="24" height="24" rx="4.5" fill="black"/>
<rect x="0.428467" y="0.428467" width="24" height="24" rx="4.5" fill="url(#paint5_radial_1_1099)" fill-opacity="0.4"/>
<rect x="0.428467" y="0.428467" width="24" height="24" rx="4.5" stroke="black" stroke-width="0.857143"/>
<rect x="0.428467" y="0.428467" width="24" height="24" rx="4.5" stroke="url(#paint6_linear_1_1099)" stroke-opacity="0.8" stroke-width="0.857143"/>
<g filter="url(#filter2_i_1_1099)">
<path d="M18.8653 14.6784V10.9284C18.8653 8.80712 18.8653 7.74647 18.2063 7.08747C17.5473 6.42847 16.4867 6.42847 14.3654 6.42847H10.6154C8.49412 6.42847 7.43348 6.42847 6.77447 7.08747C6.11547 7.74647 6.11547 8.80712 6.11547 10.9284V14.6784M7.24046 18.4285H17.7404C18.983 18.4285 19.9903 17.4212 19.9903 16.1785V15.4285C19.9903 15.0143 19.6546 14.6785 19.2403 14.6785H15.9904C15.6658 14.6785 15.3501 14.7838 15.0904 14.9785L14.3904 15.5035C14.1307 15.6982 13.815 15.8035 13.4904 15.8035H11.4904C11.1658 15.8035 10.8501 15.6982 10.5904 15.5035L9.89043 14.9785C9.63079 14.7838 9.31499 14.6785 8.99044 14.6785H5.74047C5.32627 14.6785 4.99048 15.0143 4.99048 15.4285V16.1785C4.99048 17.4212 5.99783 18.4285 7.24046 18.4285Z" stroke="#FFD738" stroke-width="0.96"/>
<path d="M18.8653 14.6784V10.9284C18.8653 8.80712 18.8653 7.74647 18.2063 7.08747C17.5473 6.42847 16.4867 6.42847 14.3654 6.42847H10.6154C8.49412 6.42847 7.43348 6.42847 6.77447 7.08747C6.11547 7.74647 6.11547 8.80712 6.11547 10.9284V14.6784M7.24046 18.4285H17.7404C18.983 18.4285 19.9903 17.4212 19.9903 16.1785V15.4285C19.9903 15.0143 19.6546 14.6785 19.2403 14.6785H15.9904C15.6658 14.6785 15.3501 14.7838 15.0904 14.9785L14.3904 15.5035C14.1307 15.6982 13.815 15.8035 13.4904 15.8035H11.4904C11.1658 15.8035 10.8501 15.6982 10.5904 15.5035L9.89043 14.9785C9.63079 14.7838 9.31499 14.6785 8.99044 14.6785H5.74047C5.32627 14.6785 4.99048 15.0143 4.99048 15.4285V16.1785C4.99048 17.4212 5.99783 18.4285 7.24046 18.4285Z" stroke="url(#paint7_radial_1_1099)" stroke-opacity="0.4" stroke-width="0.96"/>
</g>
<defs>
<filter id="filter0_i_1_1099" x="308.028" y="5.02856" width="16.8" height="17.04" filterUnits="userSpaceOnUse" color-interpolation-filters="sRGB">
<feFlood flood-opacity="0" result="BackgroundImageFix"/>
<feBlend mode="normal" in="SourceGraphic" in2="BackgroundImageFix" result="shape"/>
<feColorMatrix in="SourceAlpha" type="matrix" values="0 0 0 0 0 0 0 0 0 0 0 0 0 0 0 0 0 0 127 0" result="hardAlpha"/>
<feOffset dy="0.24"/>
<feGaussianBlur stdDeviation="0.24"/>
<feComposite in2="hardAlpha" operator="arithmetic" k2="-1" k3="1"/>
<feColorMatrix type="matrix" values="0 0 0 0 1 0 0 0 0 1 0 0 0 0 1 0 0 0 0.1 0"/>
<feBlend mode="normal" in2="shape" result="effect1_innerShadow_1_1099"/>
</filter>
<filter id="filter1_i_1_1099" x="313.366" y="17.397" width="6.12842" height="1.67994" filterUnits="userSpaceOnUse" color-interpolation-filters="sRGB">
<feFlood flood-opacity="0" result="BackgroundImageFix"/>
<feBlend mode="normal" in="SourceGraphic" in2="BackgroundImageFix" result="shape"/>
<feColorMatrix in="SourceAlpha" type="matrix" values="0 0 0 0 0 0 0 0 0 0 0 0 0 0 0 0 0 0 127 0" result="hardAlpha"/>
<feOffset dy="0.24"/>
<feGaussianBlur stdDeviation="0.24"/>
<feComposite in2="hardAlpha" operator="arithmetic" k2="-1" k3="1"/>
<feColorMatrix type="matrix" values="0 0 0 0 1 0 0 0 0 1 0 0 0 0 1 0 0 0 0.1 0"/>
<feBlend mode="normal" in2="shape" result="effect1_innerShadow_1_1099"/>
</filter>
<filter id="filter2_i_1_1099" x="4.5105" y="5.94849" width="15.9597" height="13.2" filterUnits="userSpaceOnUse" color-interpolation-filters="sRGB">
<feFlood flood-opacity="0" result="BackgroundImageFix"/>
<feBlend mode="normal" in="SourceGraphic" in2="BackgroundImageFix" result="shape"/>
<feColorMatrix in="SourceAlpha" type="matrix" values="0 0 0 0 0 0 0 0 0 0 0 0 0 0 0 0 0 0 127 0" result="hardAlpha"/>
<feOffset dy="0.24"/>
<feGaussianBlur stdDeviation="0.24"/>
<feComposite in2="hardAlpha" operator="arithmetic" k2="-1" k3="1"/>
<feColorMatrix type="matrix" values="0 0 0 0 1 0 0 0 0 1 0 0 0 0 1 0 0 0 0.1 0"/>
<feBlend mode="normal" in2="shape" result="effect1_innerShadow_1_1099"/>
</filter>
<linearGradient id="paint0_linear_1_1099" x1="0.428467" y1="12.4285" x2="212.428" y2="12.4285" gradientUnits="userSpaceOnUse">
<stop stop-color="#FFD738" stop-opacity="0.5"/>
<stop offset="1" stop-color="#FFD738"/>
</linearGradient>
<radialGradient id="paint1_radial_1_1099" cx="0" cy="0" r="1" gradientTransform="matrix(39.84 40.44 -14.1172 30.0607 287.268 -15.9715)" gradientUnits="userSpaceOnUse">
<stop stop-color="#FF9C54"/>
<stop offset="1" stop-color="#0D0F0C"/>
</radialGradient>
<linearGradient id="paint2_linear_1_1099" x1="305.178" y1="2.55347" x2="326.388" y2="24.5885" gradientUnits="userSpaceOnUse">
<stop stop-color="#FF9C54" stop-opacity="0.8"/>
<stop offset="0.288159" stop-color="#FF9C54" stop-opacity="0.32"/>
<stop offset="0.637273" stop-color="#FF9C54" stop-opacity="0.8"/>
<stop offset="1" stop-color="#FF9C54" stop-opacity="0.32"/>
</linearGradient>
<radialGradient id="paint3_radial_1_1099" cx="0" cy="0" r="1" gradientTransform="matrix(13.3997 14.9155 -5.67738 10.6419 308.967 3.51656)" gradientUnits="userSpaceOnUse">
<stop stop-color="white"/>
<stop offset="1" stop-color="#0D0F0C"/>
</radialGradient>
<radialGradient id="paint4_radial_1_1099" cx="0" cy="0" r="1" gradientTransform="matrix(3.73944 0.887826 -0.150028 10.9705 314.348 18.0269)" gradientUnits="userSpaceOnUse">
<stop stop-color="white"/>
<stop offset="1" stop-color="#0D0F0C"/>
</radialGradient>
<radialGradient id="paint5_radial_1_1099" cx="0" cy="0" r="1" gradientTransform="matrix(39.36 41.16 -14.6096 29.9433 -16.4915 -17.3315)" gradientUnits="userSpaceOnUse">
<stop stop-color="#FFD738"/>
<stop offset="1" stop-color="#0D0F0C"/>
</radialGradient>
<linearGradient id="paint6_linear_1_1099" x1="1.17847" y1="1.55347" x2="22.3885" y2="23.5885" gradientUnits="userSpaceOnUse">
<stop stop-color="#FFD738" stop-opacity="0.8"/>
<stop offset="0.288159" stop-color="#FFD738" stop-opacity="0.32"/>
<stop offset="0.637273" stop-color="#FFD738" stop-opacity="0.8"/>
<stop offset="1" stop-color="#FFD738" stop-opacity="0.32"/>
</linearGradient>
<radialGradient id="paint7_radial_1_1099" cx="0" cy="0" r="1" gradientTransform="matrix(11.9639 10.6539 -5.06904 7.60136 5.8286 5.34847)" gradientUnits="userSpaceOnUse">
<stop stop-color="white"/>
<stop offset="1" stop-color="#0D0F0C"/>
</radialGradient>
</defs>
</svg>
