<svg width="16" height="16" viewBox="0 0 16 16" fill="none" xmlns="http://www.w3.org/2000/svg">
<path d="M7.99992 11.3333C8.18881 11.3333 8.34725 11.2693 8.47525 11.1413C8.60325 11.0133 8.66703 10.8551 8.66659 10.6666V7.99998C8.66659 7.81109 8.60259 7.65287 8.47459 7.52531C8.34659 7.39776 8.18836 7.33376 7.99992 7.33331C7.81147 7.33287 7.65325 7.39687 7.52525 7.52531C7.39725 7.65376 7.33325 7.81198 7.33325 7.99998V10.6666C7.33325 10.8555 7.39725 11.014 7.52525 11.142C7.65325 11.27 7.81147 11.3338 7.99992 11.3333ZM7.99992 5.99998C8.18881 5.99998 8.34725 5.93598 8.47525 5.80798C8.60325 5.67998 8.66703 5.52176 8.66659 5.33331C8.66614 5.14487 8.60214 4.98665 8.47459 4.85865C8.34703 4.73065 8.18881 4.66665 7.99992 4.66665C7.81103 4.66665 7.65281 4.73065 7.52525 4.85865C7.3977 4.98665 7.3337 5.14487 7.33325 5.33331C7.33281 5.52176 7.39681 5.6802 7.52525 5.80865C7.6537 5.93709 7.81192 6.00087 7.99992 5.99998ZM7.99992 14.6666C7.0777 14.6666 6.21103 14.4915 5.39992 14.1413C4.58881 13.7911 3.88325 13.3162 3.28325 12.7166C2.68325 12.1171 2.20836 11.4115 1.85859 10.6C1.50881 9.78842 1.3337 8.92176 1.33325 7.99998C1.33281 7.0782 1.50792 6.21153 1.85859 5.39998C2.20925 4.58842 2.68414 3.88287 3.28325 3.28331C3.88236 2.68376 4.58792 2.20887 5.39992 1.85865C6.21192 1.50842 7.07859 1.33331 7.99992 1.33331C8.92125 1.33331 9.78792 1.50842 10.5999 1.85865C11.4119 2.20887 12.1175 2.68376 12.7166 3.28331C13.3157 3.88287 13.7908 4.58842 14.1419 5.39998C14.493 6.21153 14.6679 7.0782 14.6666 7.99998C14.6653 8.92176 14.4901 9.78842 14.1413 10.6C13.7924 11.4115 13.3175 12.1171 12.7166 12.7166C12.1157 13.3162 11.4101 13.7913 10.5999 14.142C9.7897 14.4926 8.92303 14.6675 7.99992 14.6666ZM7.99992 13.3333C9.48881 13.3333 10.7499 12.8166 11.7833 11.7833C12.8166 10.75 13.3333 9.48887 13.3333 7.99998C13.3333 6.51109 12.8166 5.24998 11.7833 4.21665C10.7499 3.18331 9.48881 2.66665 7.99992 2.66665C6.51103 2.66665 5.24992 3.18331 4.21659 4.21665C3.18325 5.24998 2.66659 6.51109 2.66659 7.99998C2.66659 9.48887 3.18325 10.75 4.21659 11.7833C5.24992 12.8166 6.51103 13.3333 7.99992 13.3333Z" fill="#EBEDEB"/>
</svg>
