<svg width="102" height="17" viewBox="0 0 102 17" fill="none" xmlns="http://www.w3.org/2000/svg">
<path d="M18.326 0.499999C18.59 1.40933 18.8467 2.326 19.096 3.25C19.36 4.15933 19.6167 5.076 19.866 6C20.13 6.90933 20.394 7.826 20.658 8.75C20.922 9.65933 21.1787 10.576 21.428 11.5C21.692 12.4093 21.9487 13.326 22.198 14.25C22.462 15.1593 22.726 16.076 22.99 17H13.178L12.804 14.844C12.7453 14.844 12.694 14.844 12.65 14.844C12.606 14.844 12.5547 14.844 12.496 14.844H10.076C10.032 14.844 9.988 14.844 9.944 14.844C9.9 14.844 9.856 14.844 9.812 14.844L9.438 17H0.044C0.308 16.076 0.564667 15.1593 0.814 14.25C1.078 13.326 1.33467 12.4093 1.584 11.5C1.848 10.576 2.10467 9.65933 2.354 8.75C2.618 7.826 2.87467 6.90933 3.124 6C3.388 5.076 3.64467 4.15933 3.894 3.25C4.158 2.326 4.41467 1.40933 4.664 0.499999H18.326ZM10.076 13.282C10.076 13.2967 10.076 13.304 10.076 13.304C10.076 13.304 10.0833 13.304 10.098 13.304H12.518C12.5327 13.304 12.54 13.304 12.54 13.304C12.54 13.2893 12.54 13.282 12.54 13.282C12.54 13.282 12.5107 13.106 12.452 12.754C12.3933 12.3873 12.3127 11.9327 12.21 11.39C12.122 10.8327 12.0267 10.246 11.924 9.63C11.8213 8.99933 11.726 8.40533 11.638 7.848C11.55 7.29067 11.4693 6.836 11.396 6.484C11.3373 6.132 11.308 5.956 11.308 5.956C11.308 5.956 11.3007 5.956 11.286 5.956C11.286 5.956 11.2567 6.132 11.198 6.484C11.1393 6.836 11.0587 7.29067 10.956 7.848C10.868 8.40533 10.7727 8.99933 10.67 9.63C10.5673 10.246 10.472 10.8327 10.384 11.39C10.296 11.9327 10.2227 12.3873 10.164 12.754C10.1053 13.106 10.076 13.282 10.076 13.282ZM23.4713 17C23.4713 15.944 23.4713 14.888 23.4713 13.832C23.4713 12.776 23.4713 11.72 23.4713 10.664C23.4713 9.608 23.4713 8.552 23.4713 7.496C23.4713 6.44 23.4713 5.384 23.4713 4.328C23.4713 3.68267 23.4713 3.04467 23.4713 2.414C23.4713 1.76867 23.4713 1.13067 23.4713 0.499999H32.6013C32.6013 1.92267 32.6013 3.34533 32.6013 4.768C32.6013 6.176 32.6013 7.59133 32.6013 9.014C32.6013 9.894 32.6013 10.7813 32.6013 11.676C32.6013 12.556 32.6013 13.4433 32.6013 14.338C32.6013 15.218 32.6013 16.1053 32.6013 17H23.4713ZM33.483 0.499999H49.389C50.6796 0.499999 51.7503 0.734665 52.601 1.204C53.4516 1.65867 54.0896 2.25267 54.515 2.986C54.9403 3.70467 55.153 4.46733 55.153 5.274C55.153 6.11 54.9183 6.924 54.449 7.716C53.9943 8.49333 53.2976 9.13133 52.359 9.63C51.435 10.1287 50.2763 10.378 48.883 10.378C48.8243 10.378 48.6776 10.378 48.443 10.378C48.2083 10.378 47.9663 10.378 47.717 10.378C47.4823 10.378 47.3283 10.378 47.255 10.378C47.255 10.378 47.255 10.3853 47.255 10.4C47.255 10.4147 47.255 10.422 47.255 10.422C47.255 10.422 47.255 10.4293 47.255 10.444C47.255 10.444 47.255 10.4513 47.255 10.466H52.249L55.637 17H45.187C44.9083 16.252 44.6223 15.504 44.329 14.756C44.0503 14.008 43.7643 13.26 43.471 12.512C43.1923 11.764 42.9063 11.016 42.613 10.268H45.165C45.4583 10.268 45.715 10.224 45.935 10.136C46.1696 10.048 46.3603 9.93067 46.507 9.784C46.6536 9.63733 46.7636 9.476 46.837 9.3C46.9103 9.10933 46.947 8.91867 46.947 8.728C46.947 8.464 46.881 8.21467 46.749 7.98C46.617 7.74533 46.419 7.55467 46.155 7.408C45.891 7.26133 45.561 7.188 45.165 7.188H42.657C42.657 7.188 42.6496 7.19533 42.635 7.21C42.635 7.21 42.6276 7.21 42.613 7.21C42.613 7.21 42.613 7.21733 42.613 7.232C42.613 8.18533 42.613 8.88933 42.613 9.344C42.613 9.784 42.613 10.0627 42.613 10.18C42.613 10.2827 42.613 10.3193 42.613 10.29C42.613 10.29 42.613 10.3707 42.613 10.532C42.613 10.6787 42.613 10.884 42.613 11.148C42.613 11.412 42.613 11.7127 42.613 12.05C42.613 12.534 42.613 13.0693 42.613 13.656C42.613 14.2427 42.613 14.8293 42.613 15.416C42.613 15.988 42.613 16.516 42.613 17H33.483C33.483 16.0613 33.483 15.1227 33.483 14.184C33.483 13.2307 33.483 12.2847 33.483 11.346C33.483 10.4073 33.483 9.46867 33.483 8.53C33.483 7.57667 33.483 6.63067 33.483 5.692C33.483 4.82667 33.483 3.96133 33.483 3.096C33.483 2.23067 33.483 1.36533 33.483 0.499999ZM73.992 0.499999C74.256 1.40933 74.5127 2.326 74.762 3.25C75.026 4.15933 75.2827 5.076 75.532 6C75.796 6.90933 76.06 7.826 76.324 8.75C76.588 9.65933 76.8447 10.576 77.094 11.5C77.358 12.4093 77.6147 13.326 77.864 14.25C78.128 15.1593 78.392 16.076 78.656 17H68.844L68.47 14.844C68.4113 14.844 68.36 14.844 68.316 14.844C68.272 14.844 68.2207 14.844 68.162 14.844H65.742C65.698 14.844 65.654 14.844 65.61 14.844C65.566 14.844 65.522 14.844 65.478 14.844L65.104 17H55.71C55.974 16.076 56.2307 15.1593 56.48 14.25C56.744 13.326 57.0007 12.4093 57.25 11.5C57.514 10.576 57.7707 9.65933 58.02 8.75C58.284 7.826 58.5407 6.90933 58.79 6C59.054 5.076 59.3107 4.15933 59.56 3.25C59.824 2.326 60.0807 1.40933 60.33 0.499999H73.992ZM65.742 13.282C65.742 13.2967 65.742 13.304 65.742 13.304C65.742 13.304 65.7493 13.304 65.764 13.304H68.184C68.1987 13.304 68.206 13.304 68.206 13.304C68.206 13.2893 68.206 13.282 68.206 13.282C68.206 13.282 68.1767 13.106 68.118 12.754C68.0593 12.3873 67.9787 11.9327 67.876 11.39C67.788 10.8327 67.6927 10.246 67.59 9.63C67.4873 8.99933 67.392 8.40533 67.304 7.848C67.216 7.29067 67.1353 6.836 67.062 6.484C67.0033 6.132 66.974 5.956 66.974 5.956C66.974 5.956 66.9667 5.956 66.952 5.956C66.952 5.956 66.9227 6.132 66.864 6.484C66.8053 6.836 66.7247 7.29067 66.622 7.848C66.534 8.40533 66.4387 8.99933 66.336 9.63C66.2333 10.246 66.138 10.8327 66.05 11.39C65.962 11.9327 65.8887 12.3873 65.83 12.754C65.7713 13.106 65.742 13.282 65.742 13.282ZM97.0233 0.499999C97.2873 1.40933 97.5439 2.326 97.7933 3.25C98.0573 4.15933 98.3139 5.076 98.5633 6C98.8273 6.90933 99.0913 7.826 99.3553 8.75C99.6193 9.65933 99.8759 10.576 100.125 11.5C100.389 12.4093 100.646 13.326 100.895 14.25C101.159 15.1593 101.423 16.076 101.687 17H91.8753L91.5013 14.844C91.4426 14.844 91.3913 14.844 91.3473 14.844C91.3033 14.844 91.2519 14.844 91.1933 14.844H88.7733C88.7293 14.844 88.6853 14.844 88.6413 14.844C88.5973 14.844 88.5533 14.844 88.5093 14.844L88.1353 17H78.7413C79.0053 16.076 79.2619 15.1593 79.5113 14.25C79.7753 13.326 80.0319 12.4093 80.2813 11.5C80.5453 10.576 80.8019 9.65933 81.0513 8.75C81.3153 7.826 81.5719 6.90933 81.8213 6C82.0853 5.076 82.3419 4.15933 82.5913 3.25C82.8553 2.326 83.1119 1.40933 83.3613 0.499999H97.0233ZM88.7733 13.282C88.7733 13.2967 88.7733 13.304 88.7733 13.304C88.7733 13.304 88.7806 13.304 88.7953 13.304H91.2153C91.2299 13.304 91.2373 13.304 91.2373 13.304C91.2373 13.2893 91.2373 13.282 91.2373 13.282C91.2373 13.282 91.2079 13.106 91.1493 12.754C91.0906 12.3873 91.0099 11.9327 90.9073 11.39C90.8193 10.8327 90.7239 10.246 90.6213 9.63C90.5186 8.99933 90.4233 8.40533 90.3353 7.848C90.2473 7.29067 90.1666 6.836 90.0933 6.484C90.0346 6.132 90.0053 5.956 90.0053 5.956C90.0053 5.956 89.9979 5.956 89.9833 5.956C89.9833 5.956 89.9539 6.132 89.8953 6.484C89.8366 6.836 89.7559 7.29067 89.6533 7.848C89.5653 8.40533 89.4699 8.99933 89.3673 9.63C89.2646 10.246 89.1693 10.8327 89.0813 11.39C88.9933 11.9327 88.9199 12.3873 88.8613 12.754C88.8026 13.106 88.7733 13.282 88.7733 13.282Z" fill="#FCFCFC"/>
</svg>
