<svg width="329" height="25" viewBox="0 0 329 25" fill="none" xmlns="http://www.w3.org/2000/svg">
<path d="M5.42847 6.92847H323.428C325.914 6.92847 327.928 8.94319 327.928 11.4285C327.928 13.9137 325.914 15.9285 323.428 15.9285H5.42847C2.94319 15.9285 0.928467 13.9137 0.928467 11.4285C0.928467 8.94319 2.94319 6.92847 5.42847 6.92847Z" fill="#0C0C0C"/>
<path d="M5.42847 6.92847H323.428C325.914 6.92847 327.928 8.94319 327.928 11.4285C327.928 13.9137 325.914 15.9285 323.428 15.9285H5.42847C2.94319 15.9285 0.928467 13.9137 0.928467 11.4285C0.928467 8.94319 2.94319 6.92847 5.42847 6.92847Z" stroke="#171A16"/>
<path d="M0.428467 11.4285C0.428467 8.66704 2.66704 6.42847 5.42847 6.42847H212.428V16.4285H5.42847C2.66704 16.4285 0.428467 14.1899 0.428467 11.4285Z" fill="url(#paint0_linear_1_1187)"/>
<line x1="211.428" y1="5.42847" x2="211.428" y2="17.4285" stroke="#FF5EAE" stroke-width="2" stroke-linecap="round"/>
<rect x="304.428" y="0.428467" width="24" height="24" rx="4.28571" fill="black"/>
<rect x="304.428" y="0.428467" width="24" height="24" rx="4.5" fill="black"/>
<rect x="304.428" y="0.428467" width="24" height="24" rx="4.5" fill="url(#paint1_radial_1_1187)" fill-opacity="0.4"/>
<rect x="304.428" y="0.428467" width="24" height="24" rx="4.5" stroke="black" stroke-width="0.857143"/>
<rect x="304.428" y="0.428467" width="24" height="24" rx="4.5" stroke="url(#paint2_linear_1_1187)" stroke-opacity="0.8" stroke-width="0.857143"/>
<g filter="url(#filter0_i_1_1187)">
<path fill-rule="evenodd" clip-rule="evenodd" d="M320.209 6.42847L322.804 9.67171L316.317 18.4285L309.831 9.67171L312.425 6.42847H320.209ZM317.814 10.1582H314.82L316.317 15.996L317.814 10.1582ZM313.714 10.1582H311.793L315.435 15.6249L313.714 10.1582ZM320.841 10.1582H318.921L317.201 15.6215L320.841 10.1582ZM314.966 7.72574L313.048 7.72576L311.88 9.1852H313.912L314.966 7.72574ZM316.642 7.72574H315.993L315.02 9.1852H317.615L316.642 7.72574ZM319.586 7.72576L317.669 7.72574L318.723 9.1852H320.754L319.586 7.72576Z" fill="#95DF93"/>
<path fill-rule="evenodd" clip-rule="evenodd" d="M320.209 6.42847L322.804 9.67171L316.317 18.4285L309.831 9.67171L312.425 6.42847H320.209ZM317.814 10.1582H314.82L316.317 15.996L317.814 10.1582ZM313.714 10.1582H311.793L315.435 15.6249L313.714 10.1582ZM320.841 10.1582H318.921L317.201 15.6215L320.841 10.1582ZM314.966 7.72574L313.048 7.72576L311.88 9.1852H313.912L314.966 7.72574ZM316.642 7.72574H315.993L315.02 9.1852H317.615L316.642 7.72574ZM319.586 7.72576L317.669 7.72574L318.723 9.1852H320.754L319.586 7.72576Z" fill="url(#paint3_radial_1_1187)" fill-opacity="0.4"/>
</g>
<rect x="0.428467" y="0.428467" width="24" height="24" rx="4.28571" fill="black"/>
<rect x="0.428467" y="0.428467" width="24" height="24" rx="4.5" fill="black"/>
<rect x="0.428467" y="0.428467" width="24" height="24" rx="4.5" fill="url(#paint4_radial_1_1187)" fill-opacity="0.4"/>
<rect x="0.428467" y="0.428467" width="24" height="24" rx="4.5" stroke="black" stroke-width="0.857143"/>
<rect x="0.428467" y="0.428467" width="24" height="24" rx="4.5" stroke="url(#paint5_linear_1_1187)" stroke-opacity="0.8" stroke-width="0.857143"/>
<g clip-path="url(#clip0_1_1187)">
<g filter="url(#filter1_ii_1_1187)">
<path d="M19.5811 5.40381C19.6391 5.40381 19.6887 5.43934 19.71 5.48975L19.7207 5.54443V19.5522C19.7205 19.6293 19.6583 19.6919 19.5811 19.6919H16.0791C16.0291 19.6919 15.983 19.665 15.958 19.6216C15.9331 19.578 15.9336 19.5243 15.959 19.481L17.3105 17.1772L17.5664 16.7407L17.0791 16.604C15.917 16.2758 15.0636 15.2049 15.0635 13.9409V10.4331L14.582 10.5493C14.4365 10.5842 14.2846 10.6021 14.1289 10.6021C13.5208 10.602 12.9757 10.3214 12.6152 9.87842L12.3115 9.50537L12.0088 9.87842C11.6482 10.3217 11.1025 10.6021 10.4941 10.6021C10.3385 10.602 10.1872 10.5841 10.042 10.5493L9.55957 10.4331V13.9409C9.55947 15.2049 8.70608 16.2757 7.54395 16.604L7.05762 16.7407L7.31348 17.1772L8.66504 19.481C8.69046 19.5243 8.69092 19.578 8.66602 19.6216C8.64102 19.6652 8.5941 19.6919 8.54395 19.6919H5.04199C4.965 19.6917 4.90252 19.6292 4.90234 19.5522V5.54346C4.90252 5.46777 4.9629 5.40605 5.03809 5.40381C5.03928 5.40387 5.04071 5.40473 5.04199 5.40479H5.07324C5.07946 5.40454 5.08465 5.40403 5.08789 5.40381H19.5811ZM5.18262 19.4116H8.2998L7.95508 18.8237L6.82617 16.8999L6.71289 16.7075H5.18262V19.4116ZM17.7969 16.8999L16.6689 18.8237L16.3232 19.4116H19.4414V16.7075H17.9102L17.7969 16.8999ZM8.37402 9.87842C8.01345 10.3216 7.46765 10.6021 6.85938 10.6021C6.4646 10.602 6.09737 10.4838 5.78906 10.2798L5.18262 9.87842V16.4272H6.79297C8.1644 16.4272 9.28018 15.3123 9.28027 13.9409V10.439C9.28027 10.4376 9.28001 10.4312 9.28223 10.4165L9.3125 10.2134L9.16309 10.0737C9.09642 10.0112 9.03546 9.946 8.98047 9.87842L8.67676 9.50537L8.37402 9.87842ZM15.6436 9.87842C15.5884 9.94617 15.5266 10.0112 15.46 10.0737L15.3105 10.2134L15.3408 10.4165C15.343 10.4306 15.3438 10.4373 15.3438 10.439V13.9409C15.3438 15.3123 16.4587 16.4272 17.8301 16.4272H19.4414V9.87842L18.835 10.2798C18.5266 10.484 18.1587 10.6021 17.7637 10.6021C17.1554 10.602 16.6096 10.3216 16.249 9.87842L15.9463 9.50537L15.6436 9.87842ZM5.20801 6.0708L5.18262 8.62842V8.63232C5.18418 9.56023 5.93084 10.3227 6.85938 10.3228C7.7891 10.3228 8.53711 9.55878 8.53711 8.62939C8.53733 8.55233 8.59976 8.48983 8.67676 8.48975C8.75391 8.48975 8.81618 8.5523 8.81641 8.62939C8.81641 9.55869 9.56452 10.3227 10.4941 10.3228C11.4238 10.3228 12.1719 9.55875 12.1719 8.62939C12.1721 8.5523 12.2344 8.4898 12.3115 8.48975C12.3887 8.48975 12.4509 8.5523 12.4512 8.62939C12.4512 9.55871 13.1993 10.3227 14.1289 10.3228C15.0585 10.3228 15.8066 9.55871 15.8066 8.62939C15.8069 8.55225 15.8692 8.48976 15.9463 8.48975C16.0234 8.48975 16.0857 8.55227 16.0859 8.62939C16.0859 9.55874 16.834 10.3227 17.7637 10.3228C18.6933 10.3228 19.4414 9.55873 19.4414 8.62939V5.68408H5.21191L5.20801 6.0708Z" stroke="#FF5EAE" stroke-width="0.781395"/>
<path d="M19.5811 5.40381C19.6391 5.40381 19.6887 5.43934 19.71 5.48975L19.7207 5.54443V19.5522C19.7205 19.6293 19.6583 19.6919 19.5811 19.6919H16.0791C16.0291 19.6919 15.983 19.665 15.958 19.6216C15.9331 19.578 15.9336 19.5243 15.959 19.481L17.3105 17.1772L17.5664 16.7407L17.0791 16.604C15.917 16.2758 15.0636 15.2049 15.0635 13.9409V10.4331L14.582 10.5493C14.4365 10.5842 14.2846 10.6021 14.1289 10.6021C13.5208 10.602 12.9757 10.3214 12.6152 9.87842L12.3115 9.50537L12.0088 9.87842C11.6482 10.3217 11.1025 10.6021 10.4941 10.6021C10.3385 10.602 10.1872 10.5841 10.042 10.5493L9.55957 10.4331V13.9409C9.55947 15.2049 8.70608 16.2757 7.54395 16.604L7.05762 16.7407L7.31348 17.1772L8.66504 19.481C8.69046 19.5243 8.69092 19.578 8.66602 19.6216C8.64102 19.6652 8.5941 19.6919 8.54395 19.6919H5.04199C4.965 19.6917 4.90252 19.6292 4.90234 19.5522V5.54346C4.90252 5.46777 4.9629 5.40605 5.03809 5.40381C5.03928 5.40387 5.04071 5.40473 5.04199 5.40479H5.07324C5.07946 5.40454 5.08465 5.40403 5.08789 5.40381H19.5811ZM5.18262 19.4116H8.2998L7.95508 18.8237L6.82617 16.8999L6.71289 16.7075H5.18262V19.4116ZM17.7969 16.8999L16.6689 18.8237L16.3232 19.4116H19.4414V16.7075H17.9102L17.7969 16.8999ZM8.37402 9.87842C8.01345 10.3216 7.46765 10.6021 6.85938 10.6021C6.4646 10.602 6.09737 10.4838 5.78906 10.2798L5.18262 9.87842V16.4272H6.79297C8.1644 16.4272 9.28018 15.3123 9.28027 13.9409V10.439C9.28027 10.4376 9.28001 10.4312 9.28223 10.4165L9.3125 10.2134L9.16309 10.0737C9.09642 10.0112 9.03546 9.946 8.98047 9.87842L8.67676 9.50537L8.37402 9.87842ZM15.6436 9.87842C15.5884 9.94617 15.5266 10.0112 15.46 10.0737L15.3105 10.2134L15.3408 10.4165C15.343 10.4306 15.3438 10.4373 15.3438 10.439V13.9409C15.3438 15.3123 16.4587 16.4272 17.8301 16.4272H19.4414V9.87842L18.835 10.2798C18.5266 10.484 18.1587 10.6021 17.7637 10.6021C17.1554 10.602 16.6096 10.3216 16.249 9.87842L15.9463 9.50537L15.6436 9.87842ZM5.20801 6.0708L5.18262 8.62842V8.63232C5.18418 9.56023 5.93084 10.3227 6.85938 10.3228C7.7891 10.3228 8.53711 9.55878 8.53711 8.62939C8.53733 8.55233 8.59976 8.48983 8.67676 8.48975C8.75391 8.48975 8.81618 8.5523 8.81641 8.62939C8.81641 9.55869 9.56452 10.3227 10.4941 10.3228C11.4238 10.3228 12.1719 9.55875 12.1719 8.62939C12.1721 8.5523 12.2344 8.4898 12.3115 8.48975C12.3887 8.48975 12.4509 8.5523 12.4512 8.62939C12.4512 9.55871 13.1993 10.3227 14.1289 10.3228C15.0585 10.3228 15.8066 9.55871 15.8066 8.62939C15.8069 8.55225 15.8692 8.48976 15.9463 8.48975C16.0234 8.48975 16.0857 8.55227 16.0859 8.62939C16.0859 9.55874 16.834 10.3227 17.7637 10.3228C18.6933 10.3228 19.4414 9.55873 19.4414 8.62939V5.68408H5.21191L5.20801 6.0708Z" stroke="url(#paint6_radial_1_1187)" stroke-opacity="0.4" stroke-width="0.781395"/>
</g>
</g>
<defs>
<filter id="filter0_i_1_1187" x="309.831" y="6.42847" width="12.9729" height="12.083" filterUnits="userSpaceOnUse" color-interpolation-filters="sRGB">
<feFlood flood-opacity="0" result="BackgroundImageFix"/>
<feBlend mode="normal" in="SourceGraphic" in2="BackgroundImageFix" result="shape"/>
<feColorMatrix in="SourceAlpha" type="matrix" values="0 0 0 0 0 0 0 0 0 0 0 0 0 0 0 0 0 0 127 0" result="hardAlpha"/>
<feOffset dy="0.083027"/>
<feGaussianBlur stdDeviation="0.083027"/>
<feComposite in2="hardAlpha" operator="arithmetic" k2="-1" k3="1"/>
<feColorMatrix type="matrix" values="0 0 0 0 1 0 0 0 0 1 0 0 0 0 1 0 0 0 0.1 0"/>
<feBlend mode="normal" in2="shape" result="effect1_innerShadow_1_1187"/>
</filter>
<filter id="filter1_ii_1_1187" x="4.51172" y="5.01318" width="15.6001" height="15.3093" filterUnits="userSpaceOnUse" color-interpolation-filters="sRGB">
<feFlood flood-opacity="0" result="BackgroundImageFix"/>
<feBlend mode="normal" in="SourceGraphic" in2="BackgroundImageFix" result="shape"/>
<feColorMatrix in="SourceAlpha" type="matrix" values="0 0 0 0 0 0 0 0 0 0 0 0 0 0 0 0 0 0 127 0" result="hardAlpha"/>
<feOffset dy="0.24"/>
<feGaussianBlur stdDeviation="0.24"/>
<feComposite in2="hardAlpha" operator="arithmetic" k2="-1" k3="1"/>
<feColorMatrix type="matrix" values="0 0 0 0 1 0 0 0 0 1 0 0 0 0 1 0 0 0 0.1 0"/>
<feBlend mode="normal" in2="shape" result="effect1_innerShadow_1_1187"/>
<feColorMatrix in="SourceAlpha" type="matrix" values="0 0 0 0 0 0 0 0 0 0 0 0 0 0 0 0 0 0 127 0" result="hardAlpha"/>
<feOffset dy="0.24"/>
<feGaussianBlur stdDeviation="0.24"/>
<feComposite in2="hardAlpha" operator="arithmetic" k2="-1" k3="1"/>
<feColorMatrix type="matrix" values="0 0 0 0 1 0 0 0 0 1 0 0 0 0 1 0 0 0 0.1 0"/>
<feBlend mode="normal" in2="effect1_innerShadow_1_1187" result="effect2_innerShadow_1_1187"/>
</filter>
<linearGradient id="paint0_linear_1_1187" x1="0.428467" y1="11.4285" x2="212.428" y2="11.4285" gradientUnits="userSpaceOnUse">
<stop stop-color="#FF5EAE" stop-opacity="0.5"/>
<stop offset="1" stop-color="#FF5EAE"/>
</linearGradient>
<radialGradient id="paint1_radial_1_1187" cx="0" cy="0" r="1" gradientTransform="matrix(31.4683 40.0696 -15.6109 25.3914 293.444 -20.4933)" gradientUnits="userSpaceOnUse">
<stop stop-color="#95DF93"/>
<stop offset="1" stop-color="#0D0F0C"/>
</radialGradient>
<linearGradient id="paint2_linear_1_1187" x1="305.178" y1="1.55347" x2="326.388" y2="23.5885" gradientUnits="userSpaceOnUse">
<stop stop-color="#95DF93" stop-opacity="0.8"/>
<stop offset="0.288159" stop-color="#95DF93" stop-opacity="0.32"/>
<stop offset="0.637273" stop-color="#95DF93" stop-opacity="0.8"/>
<stop offset="1" stop-color="#95DF93" stop-opacity="0.32"/>
</linearGradient>
<radialGradient id="paint3_radial_1_1187" cx="0" cy="0" r="1" gradientTransform="matrix(10.3472 10.6539 -4.38408 7.60135 310.556 5.34847)" gradientUnits="userSpaceOnUse">
<stop stop-color="white"/>
<stop offset="1" stop-color="#0D0F0C"/>
</radialGradient>
<radialGradient id="paint4_radial_1_1187" cx="0" cy="0" r="1" gradientTransform="matrix(31.4683 40.0696 -15.6109 25.3914 -10.5564 -20.4933)" gradientUnits="userSpaceOnUse">
<stop stop-color="#FF5EAE"/>
<stop offset="1" stop-color="#0D0F0C"/>
</radialGradient>
<linearGradient id="paint5_linear_1_1187" x1="1.17847" y1="1.55347" x2="22.3885" y2="23.5885" gradientUnits="userSpaceOnUse">
<stop stop-color="#FF5EAE" stop-opacity="0.8"/>
<stop offset="0.288159" stop-color="#FF5EAE" stop-opacity="0.32"/>
<stop offset="0.637273" stop-color="#FF5EAE" stop-opacity="0.8"/>
<stop offset="1" stop-color="#FF5EAE" stop-opacity="0.32"/>
</linearGradient>
<radialGradient id="paint6_radial_1_1187" cx="0" cy="0" r="1" gradientTransform="matrix(12.4427 13.379 -5.27191 9.54562 5.38339 3.65694)" gradientUnits="userSpaceOnUse">
<stop stop-color="white"/>
<stop offset="1" stop-color="#0D0F0C"/>
</radialGradient>
<clipPath id="clip0_1_1187">
<rect width="15.36" height="15.36" fill="white" transform="translate(4.51245 4.98853)"/>
</clipPath>
</defs>
</svg>
