<svg width="129" height="39" viewBox="0 0 129 39" fill="none" xmlns="http://www.w3.org/2000/svg">
<rect x="0.5" y="0.5" width="128" height="38" rx="8" fill="#0D0F0C"/>
<rect x="0.5" y="0.5" width="128" height="38" rx="8" fill="url(#paint0_linear_3_1798)"/>
<rect x="0.5" y="0.5" width="128" height="38" rx="8" stroke="#171A16"/>
<rect x="8.5" y="7.5" width="24" height="24" rx="12" fill="white"/>
<path d="M41.7 28.38C40.7933 28.38 40.004 28.188 39.332 27.804C38.66 27.4307 38.1373 26.892 37.764 26.188C37.4013 25.4947 37.22 24.6787 37.22 23.74V18.3C37.22 17.34 37.3907 16.5133 37.732 15.82C38.084 15.1267 38.58 14.5933 39.22 14.22C39.8707 13.8467 40.644 13.66 41.54 13.66C42.3507 13.66 43.0493 13.82 43.636 14.14C44.2227 14.4493 44.6707 14.8973 44.98 15.484C45.3 16.0707 45.46 16.7693 45.46 17.58V24.46H44.324V23.58H43.876L44.18 23.26C44.18 23.6653 44.0253 23.996 43.716 24.252C43.4067 24.4973 42.996 24.62 42.484 24.62C41.7907 24.62 41.2573 24.412 40.884 23.996C40.5213 23.5693 40.34 22.9507 40.34 22.14V20.22C40.34 19.4093 40.5213 18.796 40.884 18.38C41.2573 17.9533 41.7907 17.74 42.484 17.74C42.996 17.74 43.4067 17.868 43.716 18.124C44.0253 18.3693 44.18 18.7 44.18 19.116L43.956 18.78H44.34L44.18 17.66V17.58C44.18 16.972 44.0787 16.46 43.876 16.044C43.6733 15.628 43.3747 15.3133 42.98 15.1C42.596 14.8867 42.116 14.78 41.54 14.78C40.58 14.78 39.8333 15.0893 39.3 15.708C38.7667 16.3267 38.5 17.1907 38.5 18.3V23.74C38.5 24.8067 38.7827 25.644 39.348 26.252C39.924 26.8707 40.708 27.18 41.7 27.18H42.82V28.38H41.7ZM42.9 23.612C43.3373 23.612 43.6573 23.4787 43.86 23.212C44.0733 22.9453 44.18 22.5347 44.18 21.98V20.204C44.18 19.7027 44.0733 19.3347 43.86 19.1C43.6573 18.8653 43.3373 18.748 42.9 18.748C42.4733 18.748 42.1533 18.8707 41.94 19.116C41.7267 19.3507 41.62 19.7187 41.62 20.22V22.14C41.62 22.6413 41.7267 23.0147 41.94 23.26C42.1533 23.4947 42.4733 23.612 42.9 23.612ZM50.5738 25.66C49.4858 25.66 48.6538 25.3613 48.0778 24.764C47.5018 24.156 47.2138 23.3347 47.2138 22.3V13.82H48.6538V22.3C48.6538 22.94 48.8084 23.4467 49.1178 23.82C49.4378 24.1933 49.9231 24.38 50.5738 24.38C51.2138 24.38 51.6938 24.1933 52.0138 23.82C52.3338 23.4467 52.4938 22.94 52.4938 22.3V13.82H53.9338V22.3C53.9338 23.3453 53.6458 24.1667 53.0698 24.764C52.5044 25.3613 51.6724 25.66 50.5738 25.66ZM59.5755 25.628C58.9782 25.628 58.4555 25.5373 58.0075 25.356C57.5702 25.164 57.2182 24.8973 56.9515 24.556C56.6955 24.2147 56.5408 23.8093 56.4875 23.34H57.9275C57.9915 23.6493 58.1622 23.8947 58.4395 24.076C58.7275 24.2573 59.1062 24.348 59.5755 24.348H60.2475C60.8128 24.348 61.2342 24.236 61.5115 24.012C61.7888 23.7773 61.9275 23.468 61.9275 23.084C61.9275 22.7107 61.7995 22.4173 61.5435 22.204C61.2982 21.98 60.9302 21.8307 60.4395 21.756L59.2555 21.564C58.3915 21.4147 57.7462 21.148 57.3195 20.764C56.9035 20.3693 56.6955 19.7987 56.6955 19.052C56.6955 18.2627 56.9462 17.6547 57.4475 17.228C57.9488 16.7907 58.7008 16.572 59.7035 16.572H60.3115C61.1542 16.572 61.8315 16.7693 62.3435 17.164C62.8555 17.5587 63.1648 18.092 63.2715 18.764H61.8315C61.7675 18.4867 61.6075 18.268 61.3515 18.108C61.0955 17.9373 60.7488 17.852 60.3115 17.852H59.7035C59.1595 17.852 58.7595 17.9533 58.5035 18.156C58.2582 18.3587 58.1355 18.6627 58.1355 19.068C58.1355 19.4307 58.2422 19.6973 58.4555 19.868C58.6688 20.0387 59.0048 20.1613 59.4635 20.236L60.6475 20.428C61.5968 20.5773 62.2848 20.8547 62.7115 21.26C63.1488 21.6653 63.3675 22.252 63.3675 23.02C63.3675 23.8307 63.1062 24.4707 62.5835 24.94C62.0715 25.3987 61.2928 25.628 60.2475 25.628H59.5755ZM69.1213 25.66C68.4279 25.66 67.8199 25.5213 67.2973 25.244C66.7853 24.9667 66.3853 24.5773 66.0973 24.076C65.8199 23.564 65.6813 22.972 65.6813 22.3V19.9C65.6813 19.2173 65.8199 18.6253 66.0973 18.124C66.3853 17.6227 66.7853 17.2333 67.2973 16.956C67.8199 16.6787 68.4279 16.54 69.1213 16.54C69.8146 16.54 70.4173 16.6787 70.9293 16.956C71.4519 17.2333 71.8519 17.6227 72.1293 18.124C72.4173 18.6253 72.5613 19.2173 72.5613 19.9V21.452H67.0893V22.3C67.0893 22.9933 67.2653 23.5267 67.6173 23.9C67.9693 24.2627 68.4706 24.444 69.1213 24.444C69.6759 24.444 70.1239 24.348 70.4653 24.156C70.8066 23.9533 71.0146 23.6547 71.0893 23.26H72.5293C72.4333 23.996 72.0706 24.5827 71.4413 25.02C70.8226 25.4467 70.0493 25.66 69.1213 25.66ZM71.1533 20.492V19.9C71.1533 19.2067 70.9773 18.6733 70.6253 18.3C70.2839 17.9267 69.7826 17.74 69.1213 17.74C68.4706 17.74 67.9693 17.9267 67.6173 18.3C67.2653 18.6733 67.0893 19.2067 67.0893 19.9V20.364H71.2653L71.1533 20.492ZM75.371 25.5V16.7H76.779V18.38H77.115L76.651 19.42C76.651 18.4707 76.8537 17.756 77.259 17.276C77.675 16.7853 78.2883 16.54 79.099 16.54C80.027 16.54 80.763 16.8333 81.307 17.42C81.8617 17.996 82.139 18.78 82.139 19.772V20.3H80.699V19.9C80.699 19.2067 80.5283 18.6787 80.187 18.316C79.8563 17.9427 79.3817 17.756 78.763 17.756C78.155 17.756 77.675 17.9427 77.323 18.316C76.9817 18.6893 76.811 19.2173 76.811 19.9V25.5H75.371ZM84.3408 25.5V16.7H85.7808V18.38H86.0848L85.7808 18.716C85.7808 18.0227 85.9888 17.4893 86.4048 17.116C86.8208 16.732 87.3968 16.54 88.1328 16.54C89.0181 16.54 89.7221 16.812 90.2448 17.356C90.7674 17.9 91.0288 18.6413 91.0288 19.58V25.5H89.5888V19.74C89.5888 19.1107 89.4181 18.6307 89.0768 18.3C88.7461 17.9587 88.2928 17.788 87.7168 17.788C87.1194 17.788 86.6448 17.9693 86.2928 18.332C85.9514 18.6947 85.7808 19.2173 85.7808 19.9V25.5H84.3408ZM96.1745 25.66C95.2465 25.66 94.5158 25.4253 93.9825 24.956C93.4492 24.476 93.1825 23.8307 93.1825 23.02C93.1825 22.1987 93.4492 21.5533 93.9825 21.084C94.5158 20.6147 95.2358 20.38 96.1425 20.38H98.8625V19.5C98.8625 18.956 98.6972 18.54 98.3665 18.252C98.0465 17.9533 97.5878 17.804 96.9905 17.804C96.4678 17.804 96.0305 17.916 95.6785 18.14C95.3265 18.3533 95.1238 18.6467 95.0705 19.02H93.6305C93.7265 18.2627 94.0838 17.66 94.7025 17.212C95.3212 16.764 96.0945 16.54 97.0225 16.54C98.0358 16.54 98.8358 16.8013 99.4225 17.324C100.009 17.8467 100.303 18.556 100.303 19.452V25.5H98.8945V23.82H98.6545L98.8945 23.58C98.8945 24.22 98.6438 24.7267 98.1425 25.1C97.6518 25.4733 96.9958 25.66 96.1745 25.66ZM96.5265 24.524C97.2092 24.524 97.7692 24.3533 98.2065 24.012C98.6438 23.6707 98.8625 23.2333 98.8625 22.7V21.452H96.1745C95.6945 21.452 95.3158 21.5853 95.0385 21.852C94.7612 22.1187 94.6225 22.4813 94.6225 22.94C94.6225 23.4307 94.7878 23.82 95.1185 24.108C95.4598 24.3853 95.9292 24.524 96.5265 24.524ZM102.472 25.5V16.7H103.736V17.756H104.024L103.8 18.14C103.8 17.6493 103.928 17.26 104.184 16.972C104.451 16.684 104.808 16.54 105.256 16.54C105.747 16.54 106.126 16.7213 106.392 17.084C106.659 17.4467 106.792 17.9587 106.792 18.62L106.36 17.756H107.032L106.728 18.14C106.728 17.6493 106.862 17.26 107.128 16.972C107.406 16.684 107.768 16.54 108.216 16.54C108.771 16.54 109.198 16.748 109.496 17.164C109.806 17.58 109.96 18.1293 109.96 18.812V25.5H108.632V18.796C108.632 18.4333 108.552 18.1507 108.392 17.948C108.243 17.7453 108.019 17.644 107.72 17.644C107.432 17.644 107.203 17.7453 107.032 17.948C106.872 18.14 106.792 18.4173 106.792 18.78V25.5H105.64V18.796C105.64 18.4227 105.555 18.14 105.384 17.948C105.224 17.7453 104.995 17.644 104.696 17.644C104.398 17.644 104.174 17.7453 104.024 17.948C103.875 18.14 103.8 18.4173 103.8 18.78V25.5H102.472ZM115.49 25.66C114.797 25.66 114.189 25.5213 113.666 25.244C113.154 24.9667 112.754 24.5773 112.466 24.076C112.189 23.564 112.05 22.972 112.05 22.3V19.9C112.05 19.2173 112.189 18.6253 112.466 18.124C112.754 17.6227 113.154 17.2333 113.666 16.956C114.189 16.6787 114.797 16.54 115.49 16.54C116.183 16.54 116.786 16.6787 117.298 16.956C117.821 17.2333 118.221 17.6227 118.498 18.124C118.786 18.6253 118.93 19.2173 118.93 19.9V21.452H113.458V22.3C113.458 22.9933 113.634 23.5267 113.986 23.9C114.338 24.2627 114.839 24.444 115.49 24.444C116.045 24.444 116.493 24.348 116.834 24.156C117.175 23.9533 117.383 23.6547 117.458 23.26H118.898C118.802 23.996 118.439 24.5827 117.81 25.02C117.191 25.4467 116.418 25.66 115.49 25.66ZM117.522 20.492V19.9C117.522 19.2067 117.346 18.6733 116.994 18.3C116.653 17.9267 116.151 17.74 115.49 17.74C114.839 17.74 114.338 17.9267 113.986 18.3C113.634 18.6733 113.458 19.2067 113.458 19.9V20.364H117.634L117.522 20.492Z" fill="#FCFCFC"/>
<defs>
<linearGradient id="paint0_linear_3_1798" x1="0.500001" y1="-8.05" x2="107.229" y2="46.9117" gradientUnits="userSpaceOnUse">
<stop stop-color="#0D0F0C"/>
<stop offset="1" stop-color="#121412"/>
</linearGradient>
</defs>
</svg>
